<svg width="440" height="192" fill="none" xmlns="http://www.w3.org/2000/svg"><path d="M0 .45V189.5h119.92v-17.77H17.77V18.23h404.46v153.5h-72.79l-7.16 17.77H440V.45H0Z" fill="url(#a)"/><path d="M203.45 118.27v20.86a24.48 24.48 0 0 0-13.06-3.65c-16.1 0-27.54 11.66-27.54 27.96s11.45 28.03 27.53 28.03c6.12 0 11.53-2.1 15.81-5.69l1.76 3.86h13.63v-71.37h-18.13Zm-10.6 57.18c-6.75 0-11.74-5.13-11.74-12.01 0-6.89 4.99-12.01 11.73-12.01 6.75 0 11.74 5.12 11.74 12 0 6.9-4.92 12.02-11.74 12.02ZM286.7 162.95c0-15.39-11.73-27.47-28.66-27.47-16.44 0-28.46 11.87-28.46 27.96 0 16.02 12.09 27.96 28.46 27.96 13.13 0 23.74-7.52 27.47-19.46h-17.99c-1.75 3.1-5.27 4.92-9.48 4.92-5.7 0-9.56-3.1-10.68-9.14h38.92c.28-1.61.42-3.16.42-4.77Zm-38.99-5.2c1.48-5.2 5.13-8.08 10.4-8.08 5.48 0 9.2 2.8 10.82 8.08H247.7ZM326.54 137.23l-9.77 31.06-9.9-31.06h-19.81l21.35 52.48h16.37l21.08-52.48h-19.32ZM104.53 55.8l-9.76 31.06-9.91-31.05H65.05l21.36 52.48h16.37l21.07-52.48h-19.32ZM129.75 33.96v15.32h17.78V33.96h-17.78Zm-.13 21.85v52.48h18.05V55.8h-18.05ZM232.25 55.6c-6.25 0-10.75 1.75-14.47 6.04l-2.81-5.83h-12.09v52.48h18.06v-26.7c0-6.67 2.67-9.48 9.06-9.48h7.03V55.6h-4.78ZM243.99 33.96v15.32h17.77V33.96H244Zm-.14 21.85v52.48h18.05V55.8h-18.05ZM324.77 76.32c-2.67-18.68-16.58-21.64-25.64-21.99-9.06.43-22.97 3.3-25.64 22-.14.84-.21 1.75-.36 2.52v29.44h18.2V80.26c0-6.26 2.81-10.05 7.8-10.54h.07c4.99.5 7.8 4.28 7.8 10.54v28.03h18.19V78.85c-.14-.77-.28-1.68-.42-2.53ZM389.97 81.6c0-15.4-11.73-27.48-28.66-27.48-16.44 0-28.46 11.88-28.46 27.96 0 16.02 12.09 27.97 28.46 27.97 13.13 0 23.74-7.52 27.47-19.47h-17.99c-1.75 3.1-5.27 4.92-9.48 4.92-5.7 0-9.56-3.09-10.68-9.13h38.92c.28-1.62.42-3.23.42-4.78Zm-38.99-5.28c1.47-5.2 5.13-8.08 10.4-8.08 5.48 0 9.27 2.81 10.82 8.08h-21.22ZM195.51 93.11v15.67h-12.3c-11.51 0-18.47-7.03-18.47-18.55v-19.6h-9.48V56.86h9.41V38.11h17.92V52.3l-.5.28-6.81 4.28h19.81v13.77h-12.57v16.58c0 3.73 2.24 5.97 6.04 5.97h6.95v-.07Z" fill="#fff"/><path d="M164.75 70.63h-.08v3.94h.08v-3.94Z" fill="#fff"/><path d="M136.71 171.73v17.77h18.55v-17.77H136.7Z" fill="url(#b)"/><defs><linearGradient id="a" x1="-.01" y1="94.95" x2="440.02" y2="94.95" gradientUnits="userSpaceOnUse"><stop stop-color="#67D5E7"/><stop offset=".68" stop-color="#333FC4"/><stop offset=".73" stop-color="#323DBF"/><stop offset=".8" stop-color="#2E39B1"/><stop offset=".88" stop-color="#28309A"/><stop offset=".95" stop-color="#1F2579"/><stop offset="1" stop-color="#191D61"/></linearGradient><linearGradient id="b" x1="209.23" y1="153.76" x2="71.26" y2="212.32" gradientUnits="userSpaceOnUse"><stop stop-color="#67D5E7"/><stop offset=".68" stop-color="#333FC4"/><stop offset=".73" stop-color="#323DBF"/><stop offset=".8" stop-color="#2E39B1"/><stop offset=".88" stop-color="#28309A"/><stop offset=".95" stop-color="#1F2579"/><stop offset="1" stop-color="#191D61"/></linearGradient></defs></svg>